# AST/ASF file generated using VICON BodyLanguage
# -----------------------------------------------
:version 1.10
:name VICON
:units
  mass 1.0
  length 0.45
  angle deg
:documentation
   .ast/.asf automatically generated from VICON data using
   VICON BodyBuilder and BodyLanguage model FoxedUp or BRILLIANT.MOD
:root
   order TX TY TZ RX RY RZ
   axis XYZ
   position 0 0 0  
   orientation 0 0 0 
:bonedata
  begin
     id 1 
     name lhipjoint
     direction 0.661853 -0.702389 0.261917 
     length 2.64193 
     axis 0 0 0  XYZ
  end
  begin
     id 2 
     name lfemur
     direction 0.34202 -0.939693 0  
     length 7.01722  
     axis 0 0 20  XYZ
    dof rx ry rz
    limits (-160.0 20.0)
           (-70.0 70.0)
           (-60.0 70.0)
  end
  begin
     id 3 
     name ltibia
     direction 0.34202 -0.939693 0   
     length 8.25008   
     axis 0 0 20   XYZ
    dof rx
    limits (-10.0 170.0)
  end
  begin
     id 4 
     name lfoot
     direction 0.0709916 -0.195048 0.978221   
     length 2.31941   
     axis -90 7.62852e-016 20   XYZ
    dof rx rz
    limits (-45.0 90.0)
           (-70.0 20.0)
  end
  begin
     id 5 
     name ltoes
     direction 1.53586e-011 -4.22017e-011 1   
     length 1.16486   
     axis -90 7.62852e-016 20   XYZ
    dof rx
    limits (-90.0 20.0)
  end
  begin
     id 6 
     name rhipjoint
     direction -0.638185 -0.721362 0.268992   
     length 2.57244  
     axis 0 0 0  XYZ 
  end
  begin
     id 7 
     name rfemur
     direction -0.34202 -0.939693 0   
     length 7.07017   
     axis 0 0 -20   XYZ
    dof rx ry rz
    limits (-160.0 20.0)
           (-70.0 70.0)
           (-70.0 60.0)
  end
  begin
     id 8 
     name rtibia
     direction -0.34202 -0.939693 0   
     length 8.20386   
     axis 0 0 -20   XYZ
    dof rx
    limits (-10.0 170.0)
 end
 begin
     id 9 
     name rfoot
     direction -0.0822429 -0.225961 0.970658   
     length 2.32215  
     axis -90 -7.62852e-016 -20   XYZ
    dof rx rz
    limits (-45.0 90.0)
           (-20.0 70.0)
  end
  begin
     id 10 
     name rtoes
     direction -1.53597e-011 -4.21689e-011 1   
     length 1.16333   
     axis -90 -7.62852e-016 -20   XYZ
    dof rx
    limits (-90.0 20.0)
  end
  begin
     id 11 
     name lowerback
     direction -0.0131557 0.998589 -0.0514484   
     length 2.14993   
     axis 0 0 0   XYZ
    dof rx ry rz
    limits (-20.0 45.0)
           (-30.0 30.0)
           (-30.0 30.0)
  end
  begin
     id 12 
     name upperback
     direction -0.000776481 0.999993 0.00352685   
     length 2.15301   
     axis 0 0 0   XYZ
    dof rx ry rz
    limits (-20.0 45.0)
           (-30.0 30.0)
           (-30.0 30.0)
  end
  begin
     id 13 
     name thorax
     direction 0.00438186 0.999609 0.0276143   
     length 2.15424   
     axis 0 0 0   XYZ
    dof rx ry rz
    limits (-20.0 45.0)
           (-30.0 30.0)
           (-30.0 30.0)
  end
  begin
     id 14 
     name lowerneck
     direction -0.0488006 0.998094 0.0377807   
     length 1.90481   
     axis 0 0 0   XYZ
    dof rx ry rz
    limits (-20.0 45.0)
           (-30.0 30.0)
           (-30.0 30.0)
  end
  begin
     id 15 
     name upperneck
     direction 0.0443769 0.990702 -0.12861   
     length 1.91305   
     axis 0 0 0   XYZ
    dof rx ry rz
    limits (-20.0 45.0)
           (-30.0 30.0)
           (-30.0 30.0)
  end
  begin
     id 16
     name head
     direction 0.0165599 0.998647 -0.0492982  
     length 1.92369  
     axis 0 0 0   XYZ
    dof rx ry rz
    limits (-20.0 45.0)
           (-30.0 30.0)
           (-30.0 30.0)
  end
  begin
     id 17 
     name lclavicle
     direction 0.911936 0.410197 -0.0105506  
     length 3.52622  
     axis 0 0 0   XYZ
    dof ry rz
    limits (-20.0 10.0)
           (0.0 20.0)
  end
  begin
     id 18 
     name lhumerus
     direction 1 -4.48974e-011 -2.48591e-028   
     length 5.47651   
     axis 180 -30 -90   XYZ
    dof rx ry rz
    limits (-60.0 90.0)
           (-90.0 90.0)
           (-90.0 90.0)
  end
  begin
     id 19
     name lradius
     direction 1 -4.48938e-011 -4.40099e-027   
     length 3.09058   
     axis 180 -30 -90   XYZ
    dof rx
    limits (-10.0 170.0)
  end
  begin
     id 20
     name lwrist
     direction 1 -4.49042e-011 -2.99852e-027   
     length 1.54529   
     axis 1.95339e-015 90 90   XYZ
    dof ry
    limits (-180.0 0.0)
 end
  begin
     id 21 
     name lhand
     direction 1 -4.48815e-011 -5.98193e-027   
     length 0.771611   
     axis 3.82337e-015 90 90   XYZ
    dof rx rz
    limits (-90.0 90.0)
           (-45.0 45.0)
  end
  begin
     id 22 
     name lfingers
     direction 1 -4.49034e-011 -1.1993e-026   
     length 0.622093   
     axis 7.64668e-015 90 90   XYZ
    dof rx
    limits (0.0 90.0)
  end
  begin
     id 23
     name lthumb
     direction 0.707107 -6.34867e-011 0.707107   
     length 0.893204   
     axis -90 45 -1.62303e-014   XYZ
    dof rx rz
    limits (-45.0 45.0)
           (-45.0 45.0)
  end
  begin
     id 24 
     name rclavicle
     direction -0.93442 0.355634 -0.0195692   
     length 3.62463  
     axis 0 0 0   XYZ 
    dof ry rz
    limits (-10.0 20.0)
           (-20.0 0.0)
  end
  begin
     id 25 
     name rhumerus
     direction -1 -4.48957e-011 -1.19147e-027  
     length 5.14182   
     axis 180 30 90   XYZ
    dof rx ry rz
    limits (-90.0 60.0)
           (-90.0 90.0)
           (-90.0 90.0)
  end
  begin
     id 26 
     name rradius
     direction -1 -4.48952e-011 -3.81062e-027   
     length 3.35565   
     axis 180 30 90   XYZ
    dof rx
    limits (-10.0 170.0)
  end
  begin
     id 27 
     name rwrist
     direction -1 -4.48973e-011 -2.99621e-027   
     length 1.67782   
     axis 1.95339e-015 -90 -90   XYZ
    dof ry
    limits (-180.0 0.0)
  end
  begin
     id 28
     name rhand
     direction -1 -4.48895e-011 -5.98727e-027   
     length 0.801042   
     axis 3.82337e-015 -90 -90   XYZ
    dof rx rz
    limits (-90.0 90.0)
           (-45.0 45.0)
  end
  begin
     id 29
     name rfingers
     direction -1 -4.49065e-011 -1.19972e-026   
     length 0.645821   
     axis 7.64668e-015 -90 -90   XYZ
    dof rx
    limits (0.0 90.0)
  end
  begin
     id 30
     name rthumb
     direction -0.707107 -6.34957e-011 0.707107   
     length 0.927273   
     axis -90 -45 1.62303e-014   XYZ
    dof rx rz
    limits (-45.0 45.0)
           (-45.0 45.0)
  end
:hierarchy
  begin
    root lhipjoint rhipjoint lowerback
    lhipjoint lfemur
    lfemur ltibia
    ltibia lfoot
    lfoot ltoes
    rhipjoint rfemur
    rfemur rtibia
    rtibia rfoot
    rfoot rtoes
    lowerback upperback
    upperback thorax
    thorax lowerneck lclavicle rclavicle
    lowerneck upperneck
    upperneck head
    lclavicle lhumerus
    lhumerus lradius
    lradius lwrist
    lwrist lhand lthumb
    lhand lfingers
    rclavicle rhumerus
    rhumerus rradius
    rradius rwrist
    rwrist rhand rthumb
    rhand rfingers
  end

#!OML:ASF E:\Style4\Style4.ASF
:FULLY-SPECIFIED
:DEGREES
480
root -0.304373 18.1293 -1.77685 0.517936 1.62287 1.06547
lowerback 2.85658 3.25572 -1.04105
upperback -0.247406 4.29841 -0.330576
thorax -1.90269 2.15452 0.0493279
lowerneck 0.821406 -5.34791 -6.28467
upperneck 2.74285 -7.37221 8.70683
head 1.35741 -3.67876 3.86268
rclavicle -2.79615e-014 -4.67144e-015
rhumerus 1.25182 4.59024 -43.5101
rradius 122.406
rwrist -81.9983
rhand 28.5503 5.79359
rfingers 7.12502
rthumb 52.399 -14.072
lclavicle -2.79615e-014 -4.67144e-015
lhumerus -14.3249 -29.5376 65.0988
lradius 125.284
lwrist 72.2606
lhand 13.8915 34.0247
lfingers 7.12502
lthumb 38.8073 59.5997
rfemur -4.91974 4.11437 18.1894
rtibia 18.4292
rfoot -13.2554 -16.147
rtoes -9.58959
lfemur -2.12442 -4.15224 -19.9666
ltibia 15.6342
lfoot -15.2262 12.9224
ltoes -15.0109
481
root -0.297756 18.1271 -1.78077 0.457005 1.48474 1.23102
lowerback 2.9006 3.19213 -1.04778
upperback -0.266806 4.21253 -0.337778
thorax -1.94632 2.11179 0.0462489
lowerneck 0.962859 -5.26347 -6.18862
upperneck 3.35841 -7.29754 8.61661
head 1.51806 -3.63871 3.81341
rclavicle 4.87985e-014 -8.34896e-015
rhumerus 1.77126 3.46129 -44.9069
rradius 122.085
rwrist -83.2871
rhand 26.8498 6.43756
rfingers 7.12502
rthumb 50.8538 -14.3251
lclavicle 4.87985e-014 -8.34896e-015
lhumerus -13.3727 -27.9804 64.4958
lradius 125.068
lwrist 74.0218
lhand 13.6717 33.5485
lfingers 7.12502
lthumb 38.5999 59.1819
rfemur -4.9686 4.13721 17.9684
rtibia 18.5869
rfoot -13.3762 -16.0164
rtoes -9.31884
lfemur -1.988 -4.03433 -20.1787
ltibia 15.5331
lfoot -15.1913 12.8783
ltoes -14.7108
482
root -0.292589 18.1243 -1.786 0.34863 1.35972 1.26516
lowerback 2.93775 3.13911 -0.974171
upperback -0.222649 4.14542 -0.274632
thorax -1.92053 2.07767 0.0724916
lowerneck 1.10623 -5.18748 -6.13249
upperneck 3.86316 -7.22781 8.54242
head 1.64567 -3.60236 3.77883
rclavicle -5.59501e-014 2.5842e-015
rhumerus 2.3966 2.27849 -46.3482
rradius 121.537
rwrist -84.4309
rhand 25.0419 6.81802
rfingers 7.12502
rthumb 49.1996 -14.815
lclavicle -5.59501e-014 2.5842e-015
lhumerus -12.3455 -26.4543 64.0205
lradius 124.725
lwrist 75.7726
lhand 13.1826 33.2793
lfingers 7.12502
lthumb 38.1383 59.0407
rfemur -4.97252 4.23064 17.9177
rtibia 18.761
rfoot -13.4331 -15.9923
rtoes -9.15158
lfemur -1.81162 -3.96181 -20.2384
ltibia 15.4389
lfoot -15.1972 12.8103
ltoes -14.0105
483
root -0.286401 18.1222 -1.79205 0.217028 1.20229 1.23275
lowerback 2.83254 3.12955 -0.881931
upperback -0.0704786 4.14018 -0.149168
thorax -1.70812 2.07408 0.161702
lowerneck 1.35133 -5.12623 -6.17747
upperneck 4.14351 -7.17227 8.55406
head 1.69168 -3.57791 3.79808
rclavicle -2.4494e-014 5.46658e-015
rhumerus 3.06152 1.06941 -47.6714
rradius 120.879
rwrist -85.4926
rhand 23.092 7.05435
rfingers 7.12502
rthumb 47.4039 -15.4319
lclavicle -2.4494e-014 5.46658e-015
lhumerus -11.14 -24.9605 63.6973
lradius 124.216
lwrist 77.535
lhand 12.4545 33.0926
lfingers 7.12502
lthumb 37.4505 59.0392
rfemur -4.95924 4.27149 17.9387
rtibia 18.9185
rfoot -13.4515 -15.8839
rtoes -9.25943
lfemur -1.64568 -3.87362 -20.2323
ltibia 15.4235
lfoot -15.2817 12.878
ltoes -13.9671
484
root -0.279164 18.1192 -1.79933 0.0666135 1.05509 1.2338
lowerback 2.67116 3.10667 -0.885264
upperback 0.131496 4.11477 0.0175471
thorax -1.42287 2.06096 0.351787
lowerneck 1.6387 -5.07088 -6.26783
upperneck 4.43031 -7.12577 8.53381
head 1.73355 -3.56001 3.81575
rclavicle -3.08147e-014 4.17448e-015
rhumerus 3.84975 0.038206 -48.8285
rradius 120.083
rwrist -86.4366
rhand 20.8786 7.31227
rfingers 7.12502
rthumb 45.3526 -16.047
lclavicle -3.08147e-014 4.17448e-015
lhumerus -10.0033 -23.5107 63.5165
lradius 123.585
lwrist 79.0356
lhand 11.7537 32.9009
lfingers 7.12502
lthumb 36.7877 59.0199
rfemur -4.93079 4.3492 17.9195
rtibia 19.0708
rfoot -13.4969 -15.8005
rtoes -9.474
lfemur -1.52823 -3.77353 -20.2643
ltibia 15.4938
lfoot -15.4221 12.9008
ltoes -13.9349
485
root -0.271852 18.116 -1.80784 -0.0222695 0.903362 1.30081
lowerback 2.60673 3.07347 -0.851532
upperback 0.221313 4.0732 0.0697764
thorax -1.29561 2.03959 0.395136
lowerneck 1.90266 -5.06764 -6.2581
upperneck 4.91959 -7.15664 8.44677
head 1.84528 -3.57763 3.78688
rclavicle 4.86588e-014 1.78906e-015
rhumerus 4.5553 -0.733734 -50.0244
rradius 119.069
rwrist -87.2422
rhand 18.3321 7.809
rfingers 7.12502
rthumb 42.9782 -16.4446
lclavicle 4.86588e-014 1.78906e-015
lhumerus -9.03043 -22.1805 63.3024
lradius 122.83
lwrist 80.1328
lhand 10.8036 32.8089
lfingers 7.12502
lthumb 35.8881 59.1528
rfemur -5.00222 4.36584 17.8129
rtibia 19.2678
rfoot -13.5278 -15.6714
rtoes -9.6771
lfemur -1.48064 -3.64709 -20.3689
ltibia 15.5678
lfoot -15.4391 12.9241
ltoes -13.8396
486
root -0.263977 18.112 -1.82034 -0.119961 0.746643 1.4016
lowerback 2.68892 3.03485 -0.770393
upperback 0.26713 4.02323 0.0543604
thorax -1.2872 2.01397 0.333247
lowerneck 1.96328 -5.10736 -6.19423
upperneck 5.63211 -7.24526 8.29483
head 2.06735 -3.61763 3.71697
rclavicle -1.5294e-014 2.78299e-015
rhumerus 5.19671 -1.34947 -51.2286
rradius 117.94
rwrist -87.8526
rhand 15.7532 8.3787
rfingers 7.12502
rthumb 40.5601 -16.6759
lclavicle -1.5294e-014 2.78299e-015
lhumerus -8.10636 -20.903 63.0383
lradius 122.008
lwrist 80.9033
lhand 9.66678 32.76
lfingers 7.12502
lthumb 34.8102 59.3602
rfemur -5.09744 4.31563 17.6642
rtibia 19.5033
rfoot -13.5779 -15.4913
rtoes -9.65172
lfemur -1.4248 -3.47158 -20.5116
ltibia 15.6239
lfoot -15.3443 12.9596
ltoes -14.0002
487
root -0.256646 18.1075 -1.83345 -0.264005 0.572351 1.57057
lowerback 2.78416 3.02076 -0.815177
upperback 0.359188 4.00259 0.0645666
thorax -1.24962 2.00352 0.366999
lowerneck 2.16455 -5.11353 -6.17898
upperneck 6.10004 -7.28206 8.18316
head 2.18342 -3.63745 3.67725
rclavicle -3.42717e-014 -9.93923e-016
rhumerus 5.81421 -1.82771 -52.2604
rradius 116.76
rwrist -88.0999
rhand 13.3194 9.09588
rfingers 7.12502
rthumb 38.2675 -16.6301
lclavicle -3.42717e-014 -9.93923e-016
lhumerus -7.2468 -19.6375 62.9346
lradius 120.953
lwrist 81.2625
lhand 9.09949 32.5058
lfingers 7.12502
lthumb 34.2717 59.2289
rfemur -5.16531 4.31215 17.4459
rtibia 19.7807
rfoot -13.6192 -15.3409
rtoes -9.89882
lfemur -1.31995 -3.34328 -20.7271
ltibia 15.678
lfoot -15.4438 12.9191
ltoes -13.6109
488
root -0.251767 18.1023 -1.84488 -0.430905 0.379523 1.6402
lowerback 2.91443 3.02099 -0.763333
upperback 0.445811 4.00369 0.0788675
thorax -1.23114 2.00351 0.348287
lowerneck 2.32391 -5.08006 -6.19714
upperneck 6.59669 -7.27058 8.16635
head 2.31977 -3.63151 3.67775
rclavicle 1.94747e-014 -2.5842e-015
rhumerus 6.3646 -2.23618 -53.2409
rradius 115.41
rwrist -88.1158
rhand 10.8827 9.73496
rfingers 7.12502
rthumb 35.963 -16.5906
lclavicle 1.94747e-014 -2.5842e-015
lhumerus -6.51061 -18.4872 62.876
lradius 119.757
lwrist 81.335
lhand 8.43877 32.3376
lfingers 7.12502
lthumb 33.6441 59.1997
rfemur -5.2135 4.3602 17.3489
rtibia 20.0635
rfoot -13.6692 -15.2043
rtoes -9.95962
lfemur -1.18459 -3.22347 -20.8311
ltibia 15.7347
lfoot -15.5388 12.9803
ltoes -13.5334
489
root -0.246795 18.0957 -1.85702 -0.646818 0.23702 1.67725
lowerback 3.09519 3.01756 -0.648486
upperback 0.55255 4.00149 0.0776159
thorax -1.21477 2.00156 0.276721
lowerneck 2.47867 -5.07668 -6.21501
upperneck 7.08154 -7.30039 8.1768
head 2.45865 -3.64568 3.68693
rclavicle 4.70561e-014 2.78299e-015
rhumerus 6.90648 -2.69969 -54.1688
rradius 113.899
rwrist -88.1697
rhand 8.51586 9.93699
rfingers 7.12502
rthumb 33.7174 -16.9091
lclavicle 4.70561e-014 2.78299e-015
lhumerus -5.66025 -17.4757 62.7801
lradius 118.533
lwrist 81.4197
lhand 7.15958 32.4418
lfingers 7.12502
lthumb 32.4276 59.561
rfemur -5.17066 4.35783 17.2918
rtibia 20.3044
rfoot -13.75 -15.0408
rtoes -9.98736
lfemur -1.02734 -3.12068 -20.9031
ltibia 15.8444
lfoot -15.5892 13.0251
ltoes -13.6056
490
root -0.242338 18.0899 -1.86906 -0.833676 0.109689 1.71507
lowerback 3.26752 3.02242 -0.62447
upperback 0.644383 4.00852 0.146392
thorax -1.22027 2.0048 0.326433
lowerneck 2.70482 -5.09698 -6.35913
upperneck 7.46814 -7.35822 8.14991
head 2.55876 -3.68036 3.70859
rclavicle -2.596e-014 -1.98785e-016
rhumerus 7.41985 -3.04225 -54.9004
rradius 112.327
rwrist -88.2789
rhand 6.13701 10.0892
rfingers 7.12502
rthumb 31.4539 -17.2247
lclavicle -2.596e-014 -1.98785e-016
lhumerus -4.74653 -16.5895 62.8326
lradius 117.2
lwrist 81.4084
lhand 5.52016 32.5813
lfingers 7.12502
lthumb 30.866 60.0082
rfemur -5.1347 4.34531 17.2328
rtibia 20.5025
rfoot -13.827 -14.8878
rtoes -9.89625
lfemur -0.969038 -2.99935 -20.9678
ltibia 16.0574
lfoot -15.669 13.0241
ltoes -13.572
491
root -0.238807 18.0843 -1.88315 -0.983871 0.0479695 1.6154
lowerback 3.5683 2.99204 -0.529581
upperback 0.64514 3.97162 0.291522
thorax -1.39099 1.9863 0.40613
lowerneck 2.90809 -5.09682 -6.51739
upperneck 7.92797 -7.38904 8.07784
head 2.68457 -3.7023 3.71713
rclavicle -6.24432e-014 -1.59028e-015
rhumerus 7.84205 -3.19206 -55.5626
rradius 110.733
rwrist -88.2227
rhand 3.64842 10.1486
rfingers 7.12502
rthumb 29.08 -17.6014
lclavicle -6.24432e-014 -1.59028e-015
lhumerus -3.93982 -15.7269 63.0064
lradius 115.846
lwrist 81.4119
lhand 3.77985 32.9273
lfingers 7.12502
lthumb 29.2055 60.6556
rfemur -5.1498 4.36949 17.3474
rtibia 20.7404
rfoot -13.8993 -14.9002
rtoes -10.0456
lfemur -0.965821 -2.90472 -20.8636
ltibia 16.2725
lfoot -15.7361 12.9536
ltoes -13.0532
492
root -0.236893 18.0779 -1.90239 -1.13333 0.0371389 1.54652
lowerback 3.94073 2.9142 -0.453442
upperback 0.633596 3.87091 0.395861
thorax -1.61187 1.93589 0.454004
lowerneck 3.12105 -5.06208 -6.58398
upperneck 8.36286 -7.36972 7.98219
head 2.79052 -3.69796 3.70157
rclavicle 3.18055e-015 2.38542e-015
rhumerus 8.27792 -3.27638 -56.2799
rradius 109.199
rwrist -88.0591
rhand 0.82108 9.75477
rfingers 7.12502
rthumb 26.3766 -18.4306
lclavicle 3.18055e-015 2.38542e-015
lhumerus -3.31776 -14.796 63.2
lradius 114.351
lwrist 81.4229
lhand 2.34907 33.1898
lfingers 7.12502
lthumb 27.8384 61.1474
rfemur -5.21051 4.34553 17.4284
rtibia 21.0145
rfoot -13.9572 -14.8731
rtoes -10.1033
lfemur -0.973983 -2.80393 -20.7724
ltibia 16.4523
lfoot -15.6171 12.8277
ltoes -13.2805
493
root -0.235358 18.0706 -1.92203 -1.32819 -0.0997088 1.71555
lowerback 4.06236 2.91726 -0.529254
upperback 0.83023 3.87043 0.371885
thorax -1.48136 1.9353 0.471514
lowerneck 3.37922 -5.05016 -6.5154
upperneck 8.49257 -7.36649 7.9205
head 2.78043 -3.6996 3.67313
rclavicle 2.34317e-014 -2.78299e-015
rhumerus 8.92658 -3.53669 -56.9687
rradius 107.41
rwrist -87.4077
rhand -1.30868 9.88497
rfingers 7.12502
rthumb 24.3363 -18.59
lclavicle 2.34317e-014 -2.78299e-015
lhumerus -2.64394 -13.9415 63.3167
lradius 112.628
lwrist 81.3253
lhand 1.1868 33.3065
lfingers 7.12502
lthumb 26.7266 61.439
rfemur -5.25948 4.28229 17.2275
rtibia 21.3022
rfoot -13.9874 -14.6919
rtoes -10.0722
lfemur -0.929337 -2.60242 -20.9519
ltibia 16.6499
lfoot -15.5582 12.7317
ltoes -13.511
494
root -0.231406 18.0623 -1.93548 -1.53919 -0.197643 1.8916
lowerback 3.80245 2.94872 -0.56705
upperback 1.25964 3.91137 0.334758
thorax -0.896313 1.95401 0.481956
lowerneck 3.60917 -5.05361 -6.43416
upperneck 8.39224 -7.37485 7.94358
head 2.70195 -3.70566 3.67162
rclavicle 4.95098e-014 -4.37326e-015
rhumerus 9.72047 -3.93443 -57.5774
rradius 105.304
rwrist -86.2429
rhand -2.22828 10.7309
rfingers 7.12502
rthumb 23.4544 -17.8595
lclavicle 4.95098e-014 -4.37326e-015
lhumerus -1.63141 -13.2369 63.3725
lradius 110.902
lwrist 81.3986
lhand -0.1692 33.3196
lfingers 7.12502
lthumb 25.4283 61.6436
rfemur -5.2865 4.16692 17.0002
rtibia 21.6465
rfoot -14.0773 -14.5013
rtoes -10.2418
lfemur -0.827627 -2.46707 -21.1688
ltibia 16.8209
lfoot -15.7467 12.6775
ltoes -13.0856
